# xmcd
#
# Track frame offsets:
#	150
#	14324
#	29623
#	44064
#	58125
#	72749
#	87450
#	104212
#	120930
#	137023
#	150450
#	166345
#	182532
#	197694
#	209248
#	229651
#	243897
#	262870
#	279045
#	295392
#	310542
#	324042
#	339000
#
# Disc length: 4685 seconds
#
# Revision: 1
# Processed by: cddbd v1.4PL0 Copyright (c) Steve Scherf et al.
# Submitted via: CDmax 1.9
#
DISCID=46124b17
DTITLE=Glen Campbell - Rhinestone Cowboy/Bloodline
DYEAR=2002
DGENRE=Country
TTITLE0=Country Boy (You Got Your Feet in L.A.)
TTITLE1=Comeback
TTITLE2=Count On Me
TTITLE3=I Miss You Tonight
TTITLE4=My Girl
TTITLE5=Rhinestone Cowboy
TTITLE6=I'd Build A Bridge
TTITLE7=Pencils For Sale
TTITLE8=Marie
TTITLE9=We're Over
TTITLE10=Baby Don't Be Givin' Me Up
TTITLE11=See You On Sunday
TTITLE12=Don't Pull Your Love/Then You Can Tell Me Goodbye
TTITLE13=Christiaan No
TTITLE14=Bloodline
TTITLE15=Everytime I Sing A Love Song
TTITLE16=Lay Me Down (Roll Me Out To Sea)
TTITLE17=The Bottom Line
TTITLE18=I Got Love For You Ruby
TTITLE19=San Francisco Is A Lonely Town
TTITLE20=Record Collector's Dream
TTITLE21=Houston (I'm Comin' To See You)
TTITLE22=Bonaparte's Retreat
EXTD=
EXTT0=
EXTT1=
EXTT2=
EXTT3=
EXTT4=
EXTT5=
EXTT6=
EXTT7=
EXTT8=
EXTT9=
EXTT10=
EXTT11=
EXTT12=
EXTT13=
EXTT14=
EXTT15=
EXTT16=
EXTT17=
EXTT18=
EXTT19=
EXTT20=
EXTT21=
EXTT22=
PLAYORDER=
